{"accessors":[{"bufferView":2,"componentType":5126,"count":72,"max":[2.6288022994995117,1,2.549306869506836],"min":[-2.6288022994995117,-1,-2.549306869506836],"type":"VEC3"},{"bufferView":2,"byteOffset":864,"componentType":5126,"count":72,"max":[1,1,1],"min":[-1,-1,-1],"type":"VEC3"},{"bufferView":1,"componentType":5126,"count":72,"max":[0.875,1],"min":[0.125,0],"type":"VEC2"},{"bufferView":0,"componentType":5125,"count":132,"type":"SCALAR"}],"asset":{"extras":{"author":"darkalphastudio (https://sketchfab.com/darkalphastudio)","license":"CC-BY-4.0 (http://creativecommons.org/licenses/by/4.0/)","source":"https://sketchfab.com/3d-models/health-c3e36457c888481b936157249079ffdf","title":"Health"},"generator":"Sketchfab-13.42.0","version":"2.0"},"bufferViews":[{"buffer":0,"byteLength":528,"name":"floatBufferViews","target":34963},{"buffer":0,"byteLength":576,"byteOffset":528,"byteStride":8,"name":"floatBufferViews","target":34962},{"buffer":0,"byteLength":1728,"byteOffset":1104,"byteStride":12,"name":"floatBufferViews","target":34962}],"buffers":[{"byteLength":2832,"uri":"data:application/octet-stream;base64,"}],"materials":[{"doubleSided":true,"name":"Body","pbrMetallicRoughness":{"baseColorFactor":[0.8,0,0.00318879,1],"metallicFactor":0,"roughnessFactor":0.9582826836961181}}],"meshes":[{"name":"Cube_Body_0","primitives":[{"attributes":{"NORMAL":1,"POSITION":0,"TEXCOORD_0":2},"indices":3,"material":0,"mode":4}]}],"nodes":[{"children":[1],"matrix":[1,0,0,0,0,2.220446049250313e-16,-1,0,0,1,2.220446049250313e-16,0,0,0,0,1],"name":"Sketchfab_model"},{"children":[2],"matrix":[0.009999999776482582,0,0,0,0,0,0.009999999776482582,0,0,-0.009999999776482582,0,0,0,0,0,1],"name":"437390bd641e41b68b40a96db350ba54.fbx"},{"children":[3],"name":"RootNode"},{"children":[4],"matrix":[10,0,0,0,0,-0.0000016292067939183141,-9.999999999999869,0,0,9.999999999999869,-0.0000016292067939183141,0,0,0,0,1],"name":"Cube"},{"mesh":0,"name":"Cube_Body_0"}],"scene":0,"scenes":[{"name":"Sketchfab_Scene","nodes":[0]}]}